<svg width="30" height="31" viewBox="0 0 30 31" fill="none" xmlns="http://www.w3.org/2000/svg">
<path fill-rule="evenodd" clip-rule="evenodd" d="M0.707007 13.2929C0.0770425 13.9229 0.523209 15 1.41411 15H1.9999C2.55219 15 2.9999 15.4478 2.9999 16V28C2.9999 29.6569 4.34305 31 5.9999 31H8.9999C10.1045 31 10.9999 30.1046 10.9999 29V24C10.9999 22.8955 11.8953 22 12.9999 22H16.9999C18.1045 22 18.9999 22.8955 18.9999 24V29C18.9999 30.1046 19.8953 31 20.9999 31H23.9999C25.6568 31 26.9999 29.6569 26.9999 28V16C26.9999 15.4478 27.4476 15 27.9999 15H28.5857C29.4766 15 29.9228 13.9229 29.2928 13.2929L17.1212 1.12136C15.9496 -0.0502162 14.0502 -0.0502186 12.8786 1.12135L0.707007 13.2929Z" fill="white"/>
</svg>
