<svg width="24" height="31" viewBox="0 0 24 31" fill="none" xmlns="http://www.w3.org/2000/svg">
<path fill-rule="evenodd" clip-rule="evenodd" d="M11.405 0.38039C11.6798 0.0946594 12.137 0.0946594 12.4118 0.38039L17.179 5.33756C17.5397 5.71259 17.5397 6.32063 17.179 6.69566C16.8184 7.07068 16.2336 7.07068 15.873 6.69566L12.8319 3.53344V21.1828C12.8319 21.7131 12.4184 22.1431 11.9084 22.1431C11.3983 22.1431 10.9848 21.7131 10.9848 21.1828V3.53344L7.94378 6.69566C7.58312 7.07068 6.99838 7.07068 6.63772 6.69566C6.27706 6.32063 6.27706 5.71259 6.63772 5.33756L11.405 0.38039ZM2.67322 12.6674H6.36722C6.87727 12.6674 7.29075 12.2374 7.29075 11.7071C7.29075 11.1767 6.87727 10.7468 6.36722 10.7468H1.9344C1.32234 10.7468 0.826172 11.2627 0.826172 11.8991V29.4347C0.826172 30.0711 1.32234 30.5871 1.9344 30.5871H22.0671C22.6792 30.5871 23.1754 30.0712 23.1754 29.4347V11.8991C23.1754 11.2627 22.6792 10.7468 22.0671 10.7468H17.4495C16.9395 10.7468 16.526 11.1767 16.526 11.7071C16.526 12.2374 16.9395 12.6674 17.4495 12.6674H21.3283V28.6665H2.67322V12.6674Z" fill="black"/>
</svg>
